Coordinates
version=1
nRows=13
nColumns=40
inDegrees=yes

Units are S.I. units (second, meters, Newtons, ...)
Angles are in degrees.

endheader
time	pelvis_tilt	pelvis_list	pelvis_rotation	pelvis_tx	pelvis_ty	pelvis_tz	hip_flexion_r	hip_adduction_r	hip_rotation_r	knee_angle_r	knee_angle_r_beta	ankle_angle_r	subtalar_angle_r	mtp_angle_r	hip_flexion_l	hip_adduction_l	hip_rotation_l	knee_angle_l	knee_angle_l_beta	ankle_angle_l	subtalar_angle_l	mtp_angle_l	lumbar_extension	lumbar_bending	lumbar_rotation	arm_flex_r	arm_add_r	arm_rot_r	elbow_flex_r	pro_sup_r	wrist_flex_r	wrist_dev_r	arm_flex_l	arm_add_l	arm_rot_l	elbow_flex_l	pro_sup_l	wrist_flex_l	wrist_dev_l
     49.70778571	     -5.70179239	     -3.19127800	      0.94279317	      1.04228796	      0.91817654	      0.47593659	     29.59559270	     -4.42298441	    -14.01944117	     14.66670973	     14.66670973	      0.86455767	      3.32272182	      9.60562638	      0.03619781	     -4.76561070	     -9.10683077	     13.53763791	     13.53763791	     20.13612330	      2.79505627	     -4.36344079	    -11.92335132	      3.56942748	      0.11398921	    -20.64071737	    -13.87866425	     -7.12925993	     27.66832582	     46.87132764	      0.00000000	      0.00000000	     17.66673960	    -20.18675571	    -13.38028812	    104.97541772	     48.10468399	      0.00000000	      0.00000000
     49.72057143	     -5.71642866	     -3.17913717	      1.01048974	      1.04385843	      0.91628679	      0.47848291	     29.24768792	     -4.16157065	    -14.38482482	     14.73809768	     14.73809768	      0.97665080	      3.56179558	      9.38333182	     -0.55919018	     -5.03460886	     -9.52455338	     13.65315025	     13.65315025	     20.64124507	      3.54144686	     -4.75917762	    -11.67281678	      3.50451480	      0.08798392	    -21.08949223	    -13.73492126	     -6.84770589	     28.28707093	     46.80082838	      0.00000000	      0.00000000	     17.45388381	    -20.25248789	    -13.41591262	    106.30308201	     48.15784240	      0.00000000	      0.00000000
     49.73335714	     -5.84614822	     -3.09673469	      1.05286157	      1.04527656	      0.91473220	      0.48098735	     28.97626901	     -3.97797053	    -14.45259346	     14.89625929	     14.89625929	      0.92435786	      3.51198042	      9.36405546	     -1.01464320	     -5.14594552	     -9.48222480	     13.73809225	     13.73809225	     20.87159139	      3.50377925	     -4.84338350	    -11.20885812	      3.43909661	      0.11428956	    -21.08370582	    -13.64636902	     -6.82865193	     28.30940417	     46.79791017	      0.00000000	      0.00000000	     17.47223888	    -20.26508149	    -13.43604731	    106.37071107	     48.16118827	      0.00000000	      0.00000000
     49.74614286	     -5.70063459	     -3.34565785	      1.16333918	      1.04696094	      0.91330514	      0.48394206	     28.67974092	     -3.45387351	    -14.07515212	     15.73570151	     15.73570151	      0.09120687	      1.98607498	      5.49323050	     -1.48811708	     -5.84560813	    -10.05732859	     14.45189448	     14.45189448	     21.73625809	      4.50983992	     -4.80887585	    -11.23926044	      3.65755605	     -0.10375162	    -21.11998154	    -13.56783712	     -5.60647209	     29.25369395	     46.62710124	      0.00000000	      0.00000000	     16.70145116	    -20.31252585	    -13.91295053	    108.32534209	     48.28837904	      0.00000000	      0.00000000
     49.75892857	     -5.63675000	     -3.38039824	      1.24656120	      1.04851546	      0.91236962	      0.48665372	     28.47896922	     -3.22561500	    -13.74455369	     16.66692844	     16.66692844	     -0.57169341	      0.79787070	      2.10800086	     -1.95762670	     -6.15548073	     -9.97218083	     14.92131443	     14.92131443	     22.22222817	      4.44910764	     -4.30700884	    -11.10455119	      3.70980225	     -0.16522765	    -20.70765023	    -13.68053660	     -3.49005676	     29.42144066	     46.41951571	      0.00000000	      0.00000000	     16.33073805	    -20.09125897	    -14.26447475	    108.61856824	     48.41262099	      0.00000000	      0.00000000
     49.77171429	     -5.55972847	     -3.45099754	      1.32951574	      1.04996127	      0.91185399	      0.48945690	     28.46874191	     -3.02978581	    -13.37299804	     18.08979549	     18.08979549	     -0.10699701	     -0.27783878	      1.57198522	     -2.32237980	     -6.53249323	     -9.85931173	     15.55568212	     15.55568212	     22.37958579	      4.23173360	     -4.43052185	    -11.04951942	      3.81737309	      0.00168079	    -20.18177565	    -13.50365805	     -3.28999173	     29.65529904	     46.39501461	      0.00000000	      0.00000000	     15.95855721	    -19.82557428	    -14.22616006	    108.71726231	     48.42059163	      0.00000000	      0.00000000
     49.78450000	     -5.45390221	     -3.53851033	      1.41696968	      1.05138892	      0.91174672	      0.49235203	     28.39472372	     -2.77334705	    -12.82630036	     19.44122867	     19.44122867	      0.42173570	     -1.59001338	      1.01312598	     -2.57688791	     -6.96861516	     -9.72730750	     16.43471388	     16.43471388	     22.46995303	      3.98545884	     -4.57267035	    -11.05125558	      3.95174010	      0.10971084	    -19.44793155	    -13.40477212	     -3.06103590	     29.97686355	     46.36689505	      0.00000000	      0.00000000	     15.38752226	    -19.54663956	    -14.23721409	    108.68447754	     48.42780092	      0.00000000	      0.00000000
     49.79728571	     -5.33159105	     -3.63562116	      1.50831414	      1.05276414	      0.91208283	      0.49534193	     28.23805667	     -2.46375003	    -12.18980577	     20.64033258	     20.64033258	      0.97071361	     -2.97493025	      0.54541247	     -2.68687983	     -7.45972142	     -9.59451466	     17.57884765	     17.57884765	     22.40600421	      3.73046664	     -4.78339722	    -11.12255894	      4.10889629	      0.15046280	    -18.48133969	    -13.33411226	     -2.73858172	     30.43467699	     46.32795045	      0.00000000	      0.00000000	     14.58837008	    -19.21412106	    -14.30918462	    108.46157041	     48.43536656	      0.00000000	      0.00000000
     49.81007143	     -5.18191547	     -3.73581569	      1.61601619	      1.05421756	      0.91279974	      0.49840545	     27.93939935	     -2.13044806	    -11.65423283	     21.62556309	     21.62556309	      1.60484324	     -4.18317413	      0.21241518	     -2.68234791	     -8.00266497	     -9.47500838	     18.96789613	     18.96789613	     22.19791469	      3.39857311	     -5.16550325	    -11.19125137	      4.26721105	      0.15985856	    -17.36090814	    -13.33508924	     -2.35760944	     31.03011255	     46.28088860	      0.00000000	      0.00000000	     13.68939710	    -18.90290626	    -14.42804089	    107.98774725	     48.44013271	      0.00000000	      0.00000000
     49.82285714	     -4.86741587	     -3.75433142	      1.66387458	      1.05585330	      0.91425116	      0.50148242	     27.24849626	     -1.87335478	    -11.37285170	     22.22170950	     22.22170950	      2.31590165	     -4.68711203	     -0.05568879	     -2.90889882	     -8.43248587	     -9.33613274	     20.26488774	     20.26488774	     21.72404560	      3.06231916	     -5.42508101	    -11.50060450	      4.31492031	      0.34849422	    -16.17873824	    -13.31032092	     -2.17457471	     31.59205112	     46.25275683	      0.00000000	      0.00000000	     12.72942650	    -18.31810615	    -14.22941767	    107.41882673	     48.41478887	      0.00000000	      0.00000000
     49.83564286	     -4.83920195	     -3.86844868	      1.80053580	      1.05717758	      0.91540394	      0.50464770	     26.81307319	     -1.49519912	    -11.01823691	     22.64577077	     22.64577077	      2.93759013	     -5.51191701	     -0.16605374	     -2.33284134	     -9.08362760	     -9.06331217	     22.35362858	     22.35362858	     20.96841789	      2.55319145	     -6.38731124	    -11.44092763	      4.49907747	      0.20091206	    -14.84289248	    -13.38861560	     -1.73352686	     32.58811728	     46.18834675	      0.00000000	      0.00000000	     11.60564157	    -18.04920446	    -14.34771596	    106.26333939	     48.40241117	      0.00000000	      0.00000000
     49.84842857	     -4.65929556	     -3.91801229	      1.90171164	      1.05871210	      0.91698320	      0.50775538	     26.05127434	     -1.15391854	    -10.76265163	     22.78775046	     22.78775046	      3.62814825	     -6.05530370	     -0.06502187	     -2.07522642	     -9.61107011	     -8.76894410	     23.95070356	     23.95070356	     18.21409829	      1.29467241	    -11.57797051	    -11.55253731	      4.60723737	      0.00953399	    -14.08983243	    -14.35400812	      1.95559415	     35.73753230	     45.80802488	      0.00000000	      0.00000000	     10.30504932	    -17.30036559	    -15.03114264	    105.02893827	     48.47772715	      0.00000000	      0.00000000
     49.86121429	     -4.30247541	     -3.65335492	      1.85002966	      1.06043796	      0.91917843	      0.51093483	     24.98957714	     -1.11346412	    -10.48587598	     22.74702333	     22.74702333	      4.29118767	     -5.95376975	     -0.27286367	     -1.89729013	     -9.82173757	     -8.66516885	     26.01314762	     26.01314762	     17.08201654	      0.79604624	    -11.72942398	    -11.94073207	      4.28519699	      0.44427743	    -12.57558484	    -14.21352648	      2.01504821	     36.38956845	     45.78931441	      0.00000000	      0.00000000	      9.20668156	    -16.65069110	    -14.58848499	    104.23309810	     48.42882132	      0.00000000	      0.00000000
